<svg width="26" height="25" viewBox="0 0 26 25" fill="none" xmlns="http://www.w3.org/2000/svg">
<path d="M18.0612 3.84995L22.0612 3.87622C22.3264 3.87797 22.58 3.98499 22.7663 4.17376C22.9526 4.36252 23.0563 4.61756 23.0546 4.88277L22.9495 20.8824C22.9477 21.1476 22.8407 21.4013 22.6519 21.5876C22.4632 21.7739 22.2081 21.8776 21.9429 21.8758L3.94331 21.7576C3.6781 21.7559 3.42445 21.6488 3.23815 21.4601C3.05185 21.2713 2.94816 21.0163 2.9499 20.7511L3.055 4.7514C3.05674 4.48619 3.16377 4.23253 3.35253 4.04623C3.5413 3.85993 3.79634 3.75625 4.06155 3.75799L8.06146 3.78426L8.0746 1.78431L10.0746 1.79744L10.0614 3.7974L16.0613 3.83681L16.0744 1.83686L18.0744 1.84999L18.0612 3.84995ZM5.02212 9.76443L4.95643 19.7642L20.9561 19.8693L21.0218 9.86953L5.02212 9.76443ZM6.9958 13.7775L11.9957 13.8103L11.9694 17.8102L6.96952 17.7774L6.9958 13.7775Z" fill="#4A3780"/>
</svg>
